<svg width="24" height="24" viewBox="0 0 24 24" fill="none" xmlns="http://www.w3.org/2000/svg">
<path d="M15.7594 2.45312C15.8979 2.44056 16.018 2.48249 16.1158 2.58008L16.6646 3.10938L16.6676 3.1123C16.7633 3.22165 16.8112 3.35231 16.8121 3.50098L16.8102 3.6123C16.7969 3.72023 16.748 3.81706 16.6646 3.90039L8.54453 12.0195L16.6646 20.1572C16.7746 20.2672 16.8263 20.3951 16.8121 20.5381C16.7981 20.6784 16.7274 20.8083 16.608 20.9277L16.2672 21.2686C16.0896 21.4461 15.9214 21.5452 15.7633 21.5469L15.7643 21.5479C15.763 21.548 15.7616 21.5468 15.7604 21.5469L15.7594 21.5479V21.5469C15.6147 21.5596 15.4761 21.4941 15.3453 21.3633L6.37754 12.4141C6.26762 12.3041 6.21159 12.1718 6.21152 12.0195C6.21152 11.8693 6.25947 11.7423 6.35801 11.6436L15.3834 2.61816C15.4911 2.51054 15.6153 2.4544 15.7545 2.45312V2.45215C15.7558 2.45202 15.7571 2.45324 15.7584 2.45312H15.7594Z" fill="white" stroke="white" stroke-width="0.1"/>
</svg>
